<?xml version="1.0" ?><svg fill='#fff' id="outline" viewBox="0 0 340 340" xmlns="http://www.w3.org/2000/svg"><title/><path d="M325.368,60.823c-11.277-16.186-33.316-26.875-65.524-31.782-5.141-6.872-28.452-31.183-92.731-16.435-6.559-2.2-37.785-10.8-70.319,12.04a78.116,78.116,0,0,0-22.706.263C57.037,27.643,43.364,36.062,34.393,49.315a24.339,24.339,0,0,0-8.34,2.075A39.54,39.54,0,0,0,4.775,73.074a32.03,32.03,0,0,0-2.141,6.654A26.522,26.522,0,0,0,4.593,94.8v94.254c0,.042,0,.084,0,.126.009.291,1.268,28.284,32.132,37.09v30.519a4.07,4.07,0,0,0,3.566,4.107,3.956,3.956,0,0,0,4.344-3.936v-48.1a3.956,3.956,0,0,0-2.775-3.776c-.156-.048-15.587-5.018-15.587-17.743v-65.5a4.07,4.07,0,0,0-3.566-4.107,3.956,3.956,0,0,0-4.344,3.936v65.671c0,14.569,12.608,21.721,18.362,24.227v6.423C13.94,210.314,12.57,190.354,12.5,188.97V104.88a40.646,40.646,0,0,0,16.81,7.592C28.1,124.314,31.061,143.6,49.727,152.008a3.955,3.955,0,0,0,5.385-2.382,4.065,4.065,0,0,0-2.266-4.889c-19.651-8.955-15.636-32.28-15.209-34.479a3.886,3.886,0,0,0,.113-.877,11.427,11.427,0,0,1,3.4-7.011,4.089,4.089,0,0,0,.3-5.48,3.955,3.955,0,0,0-5.792-.213,20.12,20.12,0,0,0-4.956,7.994c-7.786-1.8-13.637-5.182-17.039-9.888a18.3,18.3,0,0,1-3.22-13.767,24.463,24.463,0,0,1,1.642-4.911A31.692,31.692,0,0,1,29.09,58.693c3.687-1.531,5.669-1.5,6.188-1.462,1.786.831,3.47-.013,4.526-1.721C58.377,25.476,95.427,32.385,96.99,32.692a3.946,3.946,0,0,0,3.1-.681c32.7-23.819,64.03-12.115,65.34-11.608a3.947,3.947,0,0,0,2.349.168c35.492-8.335,57.147-3.975,69.065,1.152,12.681,5.455,17.257,12.908,17.286,12.957a3.959,3.959,0,0,0,2.859,1.935c30.309,4.376,51.66,14.241,61.745,28.53,8.315,11.78,6.3,22.447,6.211,22.872a3.957,3.957,0,0,0,.547,2.975c3.8,5.87,5.086,11.261,3.829,16.026a17.088,17.088,0,0,1-4.811,7.8,17.259,17.259,0,0,0-3.259-5.752,3.986,3.986,0,0,0-5.614-.191,3.926,3.926,0,0,0-.189,5.566,12.859,12.859,0,0,1,2.469,7.037c-.975,5.668-3.786,9.1-7.094,11.161a3.925,3.925,0,0,0-.884.513c-5.793,3.121-12.675,2.448-13.869,2.3a3.956,3.956,0,0,0-2.878.753c-8.667,6.472-16.506,9.234-23.261,9.9V134.5a4.071,4.071,0,0,0-3.566-4.107,3.956,3.956,0,0,0-4.344,3.937v11.635a33.706,33.706,0,0,1-12.2-4.211,3.932,3.932,0,0,0-.866-.515,28.774,28.774,0,0,1-5.371-4.151,3.955,3.955,0,0,0-5.337-.377,40.466,40.466,0,0,1-7.922,5.02,3.965,3.965,0,0,0-.688.307c-8.6,3.807-15.185,2.107-18.853.343a18.765,18.765,0,0,0,3.218-10.184,4.052,4.052,0,0,0-3.216-4.092,3.959,3.959,0,0,0-4.693,3.888,11.5,11.5,0,0,1-3.732,8.2c-19.716,15.8-39.924,10.654-48.244,7.415a3.9,3.9,0,0,0-.567-.227c-1.695-.686-2.806-1.25-3.2-1.462-1.291-.876-4.735-3.823-5.68-7.29a4.064,4.064,0,0,0-3.812-3.129,3.961,3.961,0,0,0-3.893,4.927c1.823,7.225,8.421,11.7,9.168,12.189.048.031.1.053.149.082.031.018.055.043.087.061.057.031,1.149.623,3.07,1.425,3.8,8.327,5.741,18.107,5.741,29.131v25.811A42.547,42.547,0,0,0,142.8,198.257a4.127,4.127,0,0,0-.392-.2c-1.056-.474-24.565-11.358-26.4-38.592a44.3,44.3,0,0,0,7.265.8,39.77,39.77,0,0,0,22.19,27.649,3.953,3.953,0,0,0,5.465-2.264,4.066,4.066,0,0,0-2.143-4.917c-10.994-5.387-15.628-13.779-17.5-20.981,1.29-.2,2.6-.431,3.942-.754a4.06,4.06,0,0,0,3.128-4.476,3.958,3.958,0,0,0-4.849-3.246c-16.634,4.066-28.131-4.337-28.6-4.686a3.953,3.953,0,0,0-4.753-.027A23.3,23.3,0,0,1,83.276,151.4V139.633a4.071,4.071,0,0,0-3.566-4.107,3.956,3.956,0,0,0-4.344,3.937v77.062a26.512,26.512,0,0,0,5.644,16.019,21.711,21.711,0,0,0,11.152,7.717,20.577,20.577,0,0,0,6.306.815,14.671,14.671,0,0,1-10.354,1.711c-12.434-2.413-16.455-14.346-17.745-21.12a4.038,4.038,0,0,0-.113-.68c0-.018-.015-.034-.02-.052a34.466,34.466,0,0,1-.466-3.9V131.249a4.071,4.071,0,0,0-3.566-4.107,3.956,3.956,0,0,0-4.344,3.937v86.047q0,.075,0,.15c.02.528.059,1.089.11,1.669a29.717,29.717,0,0,1-7.463.334,3.955,3.955,0,0,0-1.024,7.843,26.719,26.719,0,0,0,3.237.165,41.336,41.336,0,0,0,6.694-.568c2.731,9.781,9.425,21.162,23.191,23.833a23.54,23.54,0,0,0,4.491.434,21.875,21.875,0,0,0,15.912-6.7,28.268,28.268,0,0,0,6.316-10.74c6.363-15.613,5.794-33.68,5.766-34.443a3.955,3.955,0,0,0-7.905.284,92.591,92.591,0,0,1-3.306,25.753,10.97,10.97,0,0,1-12.78,7.712q-.375-.086-.761-.195a13.738,13.738,0,0,1-7.041-4.91,18.9,18.9,0,0,1-3.985-10.5c11.175-10,16.912-26.471,17.029-49.044a3.938,3.938,0,0,0-3.934-3.953h-.021a3.977,3.977,0,0,0-3.955,3.959c-.089,16.056-3.169,28.5-9.158,37.179V159.349a30.521,30.521,0,0,0,19.312-4.865,41.669,41.669,0,0,0,5.4,2.617c.545,33.028,27.94,46.671,30.978,48.08a33.3,33.3,0,0,1,16.211,22.767v58.291a34.727,34.727,0,0,1-12.68,12.494,53.646,53.646,0,0,0-22.309,25.418H109.805a4.07,4.07,0,0,0-4.107,3.566,3.956,3.956,0,0,0,3.936,4.344h13.388L128.03,332a4.073,4.073,0,0,0,4.05-3.484,3.955,3.955,0,0,0-3.166-4.354,46.6,46.6,0,0,1,17.627-18.623,46.668,46.668,0,0,0,8.143-6.107c-1.081,7.3-4.5,20.307-15.3,24.752a4.035,4.035,0,0,0-2.541,3.563,3.961,3.961,0,0,0,3.957,4.086h47.491a4.07,4.07,0,0,0,4.107-3.566,3.956,3.956,0,0,0-3.936-4.344H152.847c9.862-11.365,10.232-28.586,10.244-29.548V183.318a82.191,82.191,0,0,0-3.931-26.038,60.146,60.146,0,0,0,13.444,1.554,54.078,54.078,0,0,0,32.387-10.69,28.848,28.848,0,0,0,21.236,3.333c-3.231,10.959-11.234,22.655-29.923,27.87V167.406a4.07,4.07,0,0,0-3.566-4.107,3.956,3.956,0,0,0-4.344,3.936v17a4.137,4.137,0,0,0,.513,2.082,3.962,3.962,0,0,0,4.223,1.919c30.715-6.19,39.541-26.881,42-40.058a47.289,47.289,0,0,0,5.4-3.294c.785.617,1.744,1.317,2.847,2.047-1.705,28.627-31.7,45.18-31.99,45.34q-.815.433-1.587.881a43.526,43.526,0,0,0-21.412,37.742v55.177a67.8,67.8,0,0,0,9.448,34.974,22.245,22.245,0,0,0,18.969,10.787h26.744a4.071,4.071,0,0,0,4.107-3.566,3.956,3.956,0,0,0-3.937-4.344h-9.506c-4.288-14.955-19.509-25.107-26.2-28.94a28.743,28.743,0,0,1-6.495-4.955,26.206,26.206,0,0,1-5.21-7.816.239.239,0,0,1-.012-.022V230.891A35.6,35.6,0,0,1,213.763,200c.439-.255.89-.5,1.363-.757a73.242,73.242,0,0,0,9.128-6.083,54.3,54.3,0,0,0,23.27,16.608,48.438,48.438,0,0,0,4.837,1.531,3.952,3.952,0,0,0,4.933-3.457,4.047,4.047,0,0,0-3.062-4.23,40.629,40.629,0,0,1-3.929-1.25,46.538,46.538,0,0,1-20-14.3c1.371-1.266,2.763-2.648,4.147-4.124a46.65,46.65,0,0,0,17.576,11.635,3.951,3.951,0,0,0,5.138-2.672,4.084,4.084,0,0,0-2.649-4.839,39.065,39.065,0,0,1-14.877-10.121l-.069-.074a56.587,56.587,0,0,0,11.388-26.909,41.883,41.883,0,0,0,11.065,2.9v96.485c-.394,4.927.987,13.694,8.638,16.245a3.953,3.953,0,0,0,5.116-2.906A4.169,4.169,0,0,0,273,259.021c-3.537-1.382-3.088-8.1-3.085-8.156a3.574,3.574,0,0,0,.017-.358V212.522a46.6,46.6,0,0,0,13.188-3.507,47.124,47.124,0,0,0,19.945-16.232v34.734a4.069,4.069,0,0,0,3.566,4.106,3.955,3.955,0,0,0,4.344-3.936v-50.35c5.059-14.2,5.7-29.333,5.423-38.939a22.786,22.786,0,0,0,9.07-14.259c3.088-2.018,9.313-6.949,11.478-15.008,1.786-6.651.436-13.761-4.012-21.156C333.389,83.815,333.605,72.645,325.368,60.823ZM204.089,301.842c4.276,2.451,17.25,10.653,21.776,22.077h-9.054a14.293,14.293,0,0,1-12.184-6.943,58.807,58.807,0,0,1-7.394-20.113A37.915,37.915,0,0,0,204.089,301.842Zm75.9-100.09a38.689,38.689,0,0,1-10.054,2.8v-7.37c12.175-2.188,22.417-11.252,28.456-25.421a70.37,70.37,0,0,0,4.6-16.623,3.955,3.955,0,0,0-7.814-1.228,62.551,62.551,0,0,1-4.066,14.75c-4.781,11.216-12.2,18.334-21.18,20.468V154.016c7.879-.595,16.9-3.513,26.742-10.559a34.064,34.064,0,0,0,11.854-1.288C308.458,158.28,305.073,190.928,279.989,201.752Z"/><path d="M57.367,69.825a3.954,3.954,0,0,0-5.06,2.383c-.329.913-3.084,9.117,1.372,15.572,2.429,3.52,6.355,5.634,11.7,6.307a15.375,15.375,0,0,0,5.222,8.154c4.018,3.194,9.553,4.188,16.469,2.959a28.329,28.329,0,0,0,14.033,3.767c6.7,0,14.335-2.5,21.338-10.111a3.955,3.955,0,0,0-5.821-5.356c-12.544,13.633-25.935,4.656-26.482,4.28a3.962,3.962,0,0,0-3.131-.631c-5.134,1.133-9.085.767-11.43-1.058a8.419,8.419,0,0,1-2.847-5.771,3.956,3.956,0,0,0-3.887-3.913c-4.349-.075-7.255-1.118-8.637-3.1-1.852-2.654-.952-6.99-.448-8.441A3.955,3.955,0,0,0,57.367,69.825Z"/><path d="M125.793,65.331c5.224,3.122,12,3.4,20.186.823A28.2,28.2,0,0,0,167.46,76.179a34.087,34.087,0,0,0,13.42-2.931c3.186,1.209,10.04,3.141,16.94.743,5.533-1.92,9.822-6.095,12.746-12.4a3.955,3.955,0,0,0-7.177-3.325c-1.978,4.269-4.708,7.042-8.114,8.241-6.034,2.123-12.608-1.073-12.658-1.1a3.956,3.956,0,0,0-3.484-.044c-18.61,8.845-27.964-5.394-28.342-5.987a3.951,3.951,0,0,0-4.762-1.608c-6.949,2.637-12.52,2.921-16.111.816-3.919-2.3-4.692-6.968-4.715-7.111a3.955,3.955,0,0,0-7.839,1.057C117.41,52.871,118.551,61,125.793,65.331Z"/><path d="M235.633,95.371a18.428,18.428,0,0,0,4.436.537,25.623,25.623,0,0,0,13.005-4.021c6.114,3.56,16.759,6.228,26.121-1.789,5.791,2.041,15.327,2.282,22.754-7.32a3.955,3.955,0,0,0-6.257-4.84c-6.6,8.532-14.481,4.516-15.328,4.047a3.957,3.957,0,0,0-4.85.708c-8.834,9.335-18.873,2.185-19.974,1.349a3.953,3.953,0,0,0-4.652-.138c-5.022,3.429-9.487,4.712-13.277,3.807a12.251,12.251,0,0,1-7.157-5.465,3.955,3.955,0,0,0-6.977,3.727A20.206,20.206,0,0,0,235.633,95.371Z"/><circle cx="262.895" cy="327.874" r="3.955"/></svg>